<?xml version="1.0" standalone="no"?>
<!DOCTYPE svg PUBLIC "-//W3C//DTD SVG 20010904//EN"
 "http://www.w3.org/TR/2001/REC-SVG-20010904/DTD/svg10.dtd">
<svg version="1.0" xmlns="http://www.w3.org/2000/svg"
 width="4500.000000pt" height="4500.000000pt" viewBox="0 0 4500.000000 4500.000000"
 preserveAspectRatio="xMidYMid meet">
<metadata>
Created by potrace 1.14, written by Peter Selinger 2001-2017
</metadata>
<g transform="translate(0.000000,4500.000000) scale(0.100000,-0.100000)"
fill="#000000" stroke="none">
<path d="M0 40593 c0 -2423 3 -4403 8 -4399 4 4 9 1982 12 4394 l5 4387 4387
5 c2412 3 4390 8 4394 13 4 4 -1976 7 -4399 7 l-4407 0 0 -4407z"/>
<path d="M15000 37500 l0 -7500 -7500 0 -7500 0 0 -15000 0 -15000 22500 0
22500 0 0 22500 0 22500 -15000 0 -15000 0 0 -7500z m29976 1735 c1 -4811 -1
-5717 -12 -5595 -61 677 -130 1140 -249 1686 -429 1963 -1329 3779 -2643 5331
-397 468 -947 1018 -1415 1415 -1552 1314 -3368 2214 -5331 2643 -546 119
-1009 188 -1686 249 -122 11 784 13 5595 12 l5740 -1 1 -5740z m-15008 -14922
c0 -3112 -3 -5642 -5 -5623 -2 19 -12 130 -24 245 -204 2097 -970 4138 -2208
5880 -1213 1709 -2881 3110 -4753 3996 -1293 612 -2660 994 -4043 1128 -115
12 -226 22 -245 24 -19 2 2511 5 5623 5 l5657 2 -2 -5657z m15012 -1813 l0
-7470 -7475 0 -7475 0 0 7470 0 7470 7475 0 7475 0 0 -7470z m-44910 3470
c296 -2774 1544 -5373 3535 -7365 1295 -1294 2834 -2271 4550 -2888 984 -354
2000 -576 3095 -676 55 -5 -2293 -9 -5567 -10 l-5663 -1 1 5718 c1 4831 4
5694 15 5567 7 -82 23 -238 34 -345z m14900 -18475 l0 -7475 -7472 2 -7473 3
-3 7473 -2 7472 7475 0 7475 0 0 -7475z m30008 3 l-3 -7473 -7472 -3 -7473 -2
0 7475 0 7475 7475 0 7475 0 -2 -7472z m-15008 -3593 l0 -3885 -3932 1 c-2272
1 -3899 5 -3853 10 756 82 1299 196 1935 409 1660 553 3101 1593 4166 3005
800 1061 1362 2360 1588 3675 37 214 86 575 86 635 0 19 2 35 5 35 3 0 5
-1748 5 -3885z"/>
<path d="M7340 39580 c-421 -34 -828 -196 -1150 -457 -90 -74 -250 -234 -321
-323 -180 -225 -321 -510 -394 -799 -79 -316 -79 -686 0 -1002 151 -598 551
-1095 1102 -1369 293 -145 584 -212 923 -212 339 0 630 67 923 212 268 133
523 338 708 570 180 225 321 510 394 799 79 316 79 686 0 1002 -151 598 -551
1095 -1102 1369 -327 162 -726 240 -1083 210z"/>
</g>
</svg>
